<mxfile host="app.diagrams.net" modified="2024-04-03T18:26:17.633Z" agent="Mozilla/5.0 (Windows NT 10.0; Win64; x64) AppleWebKit/537.36 (KHTML, like Gecko) Chrome/120.0.0.0 YaBrowser/24.1.0.0 Safari/537.36" etag="OpMVUw05pZ5XR01ViH8Q" version="24.2.1" type="device">
  <diagram name="Page-1" id="-dvNhfMSKX878ZPpWmrN">
    <mxGraphModel dx="1822" dy="1045" grid="1" gridSize="10" guides="1" tooltips="1" connect="1" arrows="1" fold="1" page="1" pageScale="1" pageWidth="827" pageHeight="1169" math="0" shadow="0">
      <root>
        <mxCell id="0" />
        <mxCell id="1" parent="0" />
        <mxCell id="PgtoRUZVb2iyuVkDTeik-1" value="Шеф-повар" style="rounded=0;whiteSpace=wrap;html=1;" vertex="1" parent="1">
          <mxGeometry x="103" y="510" width="120" height="60" as="geometry" />
        </mxCell>
        <mxCell id="PgtoRUZVb2iyuVkDTeik-2" value="Директор" style="rounded=0;whiteSpace=wrap;html=1;" vertex="1" parent="1">
          <mxGeometry x="243" y="880" width="120" height="60" as="geometry" />
        </mxCell>
        <mxCell id="PgtoRUZVb2iyuVkDTeik-3" value="Администратор" style="rounded=0;whiteSpace=wrap;html=1;" vertex="1" parent="1">
          <mxGeometry x="568" y="510" width="120" height="60" as="geometry" />
        </mxCell>
        <mxCell id="PgtoRUZVb2iyuVkDTeik-8" value="" style="endArrow=classic;html=1;rounded=0;edgeStyle=elbowEdgeStyle;elbow=vertical;" edge="1" parent="1">
          <mxGeometry width="50" height="50" relative="1" as="geometry">
            <mxPoint x="593" y="420" as="sourcePoint" />
            <mxPoint x="593" y="510" as="targetPoint" />
          </mxGeometry>
        </mxCell>
        <mxCell id="PgtoRUZVb2iyuVkDTeik-9" value="Расписание" style="edgeLabel;html=1;align=center;verticalAlign=middle;resizable=0;points=[];" vertex="1" connectable="0" parent="PgtoRUZVb2iyuVkDTeik-8">
          <mxGeometry x="0.0068" y="1" relative="1" as="geometry">
            <mxPoint as="offset" />
          </mxGeometry>
        </mxCell>
        <mxCell id="PgtoRUZVb2iyuVkDTeik-10" value="" style="group" vertex="1" connectable="0" parent="1">
          <mxGeometry x="563" y="330" width="130" height="90" as="geometry" />
        </mxCell>
        <mxCell id="PgtoRUZVb2iyuVkDTeik-11" value="Подсистема&lt;br style=&quot;border-color: var(--border-color);&quot;&gt;&quot;Управление бронированием&quot;" style="rounded=0;whiteSpace=wrap;html=1;" vertex="1" parent="PgtoRUZVb2iyuVkDTeik-10">
          <mxGeometry width="130" height="90" as="geometry" />
        </mxCell>
        <mxCell id="PgtoRUZVb2iyuVkDTeik-12" value="" style="endArrow=none;html=1;rounded=0;exitX=0;exitY=0.25;exitDx=0;exitDy=0;entryX=1;entryY=0.25;entryDx=0;entryDy=0;" edge="1" parent="PgtoRUZVb2iyuVkDTeik-10" source="PgtoRUZVb2iyuVkDTeik-11" target="PgtoRUZVb2iyuVkDTeik-11">
          <mxGeometry width="50" height="50" relative="1" as="geometry">
            <mxPoint x="187.00000000000003" y="-80" as="sourcePoint" />
            <mxPoint x="242.00000000000003" y="-146.66666666666666" as="targetPoint" />
          </mxGeometry>
        </mxCell>
        <mxCell id="PgtoRUZVb2iyuVkDTeik-13" value="" style="endArrow=none;html=1;rounded=0;exitX=0;exitY=0.75;exitDx=0;exitDy=0;entryX=1;entryY=0.75;entryDx=0;entryDy=0;" edge="1" parent="PgtoRUZVb2iyuVkDTeik-10" source="PgtoRUZVb2iyuVkDTeik-11" target="PgtoRUZVb2iyuVkDTeik-11">
          <mxGeometry width="50" height="50" relative="1" as="geometry">
            <mxPoint x="187.00000000000003" y="-80" as="sourcePoint" />
            <mxPoint x="242.00000000000003" y="-146.66666666666666" as="targetPoint" />
          </mxGeometry>
        </mxCell>
        <mxCell id="PgtoRUZVb2iyuVkDTeik-14" value="1" style="text;html=1;align=center;verticalAlign=middle;whiteSpace=wrap;rounded=0;" vertex="1" parent="PgtoRUZVb2iyuVkDTeik-10">
          <mxGeometry width="130" height="20" as="geometry" />
        </mxCell>
        <mxCell id="PgtoRUZVb2iyuVkDTeik-15" value="&amp;nbsp;" style="text;html=1;align=center;verticalAlign=middle;whiteSpace=wrap;rounded=0;" vertex="1" parent="PgtoRUZVb2iyuVkDTeik-10">
          <mxGeometry y="70" width="130" height="20" as="geometry" />
        </mxCell>
        <mxCell id="PgtoRUZVb2iyuVkDTeik-16" value="" style="group" vertex="1" connectable="0" parent="1">
          <mxGeometry x="93" y="330" width="130" height="90" as="geometry" />
        </mxCell>
        <mxCell id="PgtoRUZVb2iyuVkDTeik-17" value="Подсистема&lt;br style=&quot;border-color: var(--border-color);&quot;&gt;&quot;Управление меню&quot;" style="rounded=0;whiteSpace=wrap;html=1;" vertex="1" parent="PgtoRUZVb2iyuVkDTeik-16">
          <mxGeometry width="130" height="90" as="geometry" />
        </mxCell>
        <mxCell id="PgtoRUZVb2iyuVkDTeik-18" value="" style="endArrow=none;html=1;rounded=0;exitX=0;exitY=0.25;exitDx=0;exitDy=0;entryX=1;entryY=0.25;entryDx=0;entryDy=0;" edge="1" parent="PgtoRUZVb2iyuVkDTeik-16" source="PgtoRUZVb2iyuVkDTeik-17" target="PgtoRUZVb2iyuVkDTeik-17">
          <mxGeometry width="50" height="50" relative="1" as="geometry">
            <mxPoint x="187.00000000000003" y="-80" as="sourcePoint" />
            <mxPoint x="242.00000000000003" y="-146.66666666666666" as="targetPoint" />
          </mxGeometry>
        </mxCell>
        <mxCell id="PgtoRUZVb2iyuVkDTeik-19" value="" style="endArrow=none;html=1;rounded=0;exitX=0;exitY=0.75;exitDx=0;exitDy=0;entryX=1;entryY=0.75;entryDx=0;entryDy=0;" edge="1" parent="PgtoRUZVb2iyuVkDTeik-16" source="PgtoRUZVb2iyuVkDTeik-17" target="PgtoRUZVb2iyuVkDTeik-17">
          <mxGeometry width="50" height="50" relative="1" as="geometry">
            <mxPoint x="187.00000000000003" y="-80" as="sourcePoint" />
            <mxPoint x="242.00000000000003" y="-146.66666666666666" as="targetPoint" />
          </mxGeometry>
        </mxCell>
        <mxCell id="PgtoRUZVb2iyuVkDTeik-20" value="2" style="text;html=1;align=center;verticalAlign=middle;whiteSpace=wrap;rounded=0;" vertex="1" parent="PgtoRUZVb2iyuVkDTeik-16">
          <mxGeometry width="130" height="20" as="geometry" />
        </mxCell>
        <mxCell id="PgtoRUZVb2iyuVkDTeik-21" value="&amp;nbsp;" style="text;html=1;align=center;verticalAlign=middle;whiteSpace=wrap;rounded=0;" vertex="1" parent="PgtoRUZVb2iyuVkDTeik-16">
          <mxGeometry y="70" width="130" height="20" as="geometry" />
        </mxCell>
        <mxCell id="PgtoRUZVb2iyuVkDTeik-22" value="" style="group" vertex="1" connectable="0" parent="1">
          <mxGeometry x="90" y="700" width="130" height="90" as="geometry" />
        </mxCell>
        <mxCell id="PgtoRUZVb2iyuVkDTeik-23" value="Подсистема&lt;br style=&quot;border-color: var(--border-color);&quot;&gt;&quot;Управление пользователями&quot;" style="rounded=0;whiteSpace=wrap;html=1;" vertex="1" parent="PgtoRUZVb2iyuVkDTeik-22">
          <mxGeometry width="130" height="90" as="geometry" />
        </mxCell>
        <mxCell id="PgtoRUZVb2iyuVkDTeik-24" value="" style="endArrow=none;html=1;rounded=0;exitX=0;exitY=0.25;exitDx=0;exitDy=0;entryX=1;entryY=0.25;entryDx=0;entryDy=0;" edge="1" parent="PgtoRUZVb2iyuVkDTeik-22" source="PgtoRUZVb2iyuVkDTeik-23" target="PgtoRUZVb2iyuVkDTeik-23">
          <mxGeometry width="50" height="50" relative="1" as="geometry">
            <mxPoint x="187.00000000000003" y="-80" as="sourcePoint" />
            <mxPoint x="242.00000000000003" y="-146.66666666666666" as="targetPoint" />
          </mxGeometry>
        </mxCell>
        <mxCell id="PgtoRUZVb2iyuVkDTeik-25" value="" style="endArrow=none;html=1;rounded=0;exitX=0;exitY=0.75;exitDx=0;exitDy=0;entryX=1;entryY=0.75;entryDx=0;entryDy=0;" edge="1" parent="PgtoRUZVb2iyuVkDTeik-22" source="PgtoRUZVb2iyuVkDTeik-23" target="PgtoRUZVb2iyuVkDTeik-23">
          <mxGeometry width="50" height="50" relative="1" as="geometry">
            <mxPoint x="187.00000000000003" y="-80" as="sourcePoint" />
            <mxPoint x="242.00000000000003" y="-146.66666666666666" as="targetPoint" />
          </mxGeometry>
        </mxCell>
        <mxCell id="PgtoRUZVb2iyuVkDTeik-26" value="3" style="text;html=1;align=center;verticalAlign=middle;whiteSpace=wrap;rounded=0;" vertex="1" parent="PgtoRUZVb2iyuVkDTeik-22">
          <mxGeometry width="130" height="20" as="geometry" />
        </mxCell>
        <mxCell id="PgtoRUZVb2iyuVkDTeik-27" value="&amp;nbsp;" style="text;html=1;align=center;verticalAlign=middle;whiteSpace=wrap;rounded=0;" vertex="1" parent="PgtoRUZVb2iyuVkDTeik-22">
          <mxGeometry y="70" width="130" height="20" as="geometry" />
        </mxCell>
        <mxCell id="PgtoRUZVb2iyuVkDTeik-30" value="" style="endArrow=classic;html=1;rounded=0;edgeStyle=elbowEdgeStyle;" edge="1" parent="1" target="PgtoRUZVb2iyuVkDTeik-1">
          <mxGeometry width="50" height="50" relative="1" as="geometry">
            <mxPoint x="132.996666666667" y="420" as="sourcePoint" />
            <mxPoint x="133.33000000000004" y="560" as="targetPoint" />
            <Array as="points">
              <mxPoint x="133" y="370" />
            </Array>
          </mxGeometry>
        </mxCell>
        <mxCell id="PgtoRUZVb2iyuVkDTeik-31" value="Меню" style="edgeLabel;html=1;align=center;verticalAlign=middle;resizable=0;points=[];" vertex="1" connectable="0" parent="PgtoRUZVb2iyuVkDTeik-30">
          <mxGeometry x="-0.1541" y="1" relative="1" as="geometry">
            <mxPoint as="offset" />
          </mxGeometry>
        </mxCell>
        <mxCell id="PgtoRUZVb2iyuVkDTeik-32" value="" style="endArrow=classic;html=1;rounded=0;edgeStyle=elbowEdgeStyle;" edge="1" parent="1" source="PgtoRUZVb2iyuVkDTeik-1" target="PgtoRUZVb2iyuVkDTeik-17">
          <mxGeometry width="50" height="50" relative="1" as="geometry">
            <mxPoint x="183" y="550" as="sourcePoint" />
            <mxPoint x="238" y="430" as="targetPoint" />
            <Array as="points">
              <mxPoint x="203" y="470" />
            </Array>
          </mxGeometry>
        </mxCell>
        <mxCell id="PgtoRUZVb2iyuVkDTeik-33" value="Новые блюда" style="edgeLabel;html=1;align=center;verticalAlign=middle;resizable=0;points=[];" vertex="1" connectable="0" parent="PgtoRUZVb2iyuVkDTeik-32">
          <mxGeometry x="0.0834" y="2" relative="1" as="geometry">
            <mxPoint as="offset" />
          </mxGeometry>
        </mxCell>
        <mxCell id="PgtoRUZVb2iyuVkDTeik-36" value="" style="endArrow=classic;html=1;rounded=0;edgeStyle=elbowEdgeStyle;" edge="1" parent="1">
          <mxGeometry width="50" height="50" relative="1" as="geometry">
            <mxPoint x="663" y="330" as="sourcePoint" />
            <mxPoint x="663" y="260" as="targetPoint" />
            <Array as="points">
              <mxPoint x="663" y="280" />
            </Array>
          </mxGeometry>
        </mxCell>
        <mxCell id="PgtoRUZVb2iyuVkDTeik-37" value="Запись" style="edgeLabel;html=1;align=center;verticalAlign=middle;resizable=0;points=[];" vertex="1" connectable="0" parent="PgtoRUZVb2iyuVkDTeik-36">
          <mxGeometry x="-0.0682" y="2" relative="1" as="geometry">
            <mxPoint as="offset" />
          </mxGeometry>
        </mxCell>
        <mxCell id="PgtoRUZVb2iyuVkDTeik-38" value="" style="endArrow=classic;html=1;rounded=0;exitX=0;exitY=0.75;exitDx=0;exitDy=0;edgeStyle=elbowEdgeStyle;entryX=0.25;entryY=1;entryDx=0;entryDy=0;elbow=vertical;" edge="1" parent="1" source="PgtoRUZVb2iyuVkDTeik-2" target="PgtoRUZVb2iyuVkDTeik-27">
          <mxGeometry width="50" height="50" relative="1" as="geometry">
            <mxPoint x="53" y="940" as="sourcePoint" />
            <mxPoint x="123" y="800" as="targetPoint" />
            <Array as="points">
              <mxPoint x="133" y="925" />
            </Array>
          </mxGeometry>
        </mxCell>
        <mxCell id="PgtoRUZVb2iyuVkDTeik-39" value="Новые&lt;br style=&quot;border-color: var(--border-color); background-color: rgb(251, 251, 251);&quot;&gt;&lt;span style=&quot;border-color: var(--border-color);&quot;&gt;&amp;nbsp;пользователи&lt;/span&gt;" style="edgeLabel;html=1;align=center;verticalAlign=middle;resizable=0;points=[];" vertex="1" connectable="0" parent="PgtoRUZVb2iyuVkDTeik-38">
          <mxGeometry x="0.2513" y="-1" relative="1" as="geometry">
            <mxPoint as="offset" />
          </mxGeometry>
        </mxCell>
        <mxCell id="PgtoRUZVb2iyuVkDTeik-40" value="" style="endArrow=classic;html=1;rounded=0;edgeStyle=elbowEdgeStyle;" edge="1" parent="1" source="PgtoRUZVb2iyuVkDTeik-45" target="PgtoRUZVb2iyuVkDTeik-17">
          <mxGeometry width="50" height="50" relative="1" as="geometry">
            <mxPoint x="343" y="330" as="sourcePoint" />
            <mxPoint x="333" y="280" as="targetPoint" />
            <Array as="points">
              <mxPoint x="143" y="300" />
            </Array>
          </mxGeometry>
        </mxCell>
        <mxCell id="PgtoRUZVb2iyuVkDTeik-41" value="Чтение" style="edgeLabel;html=1;align=center;verticalAlign=middle;resizable=0;points=[];" vertex="1" connectable="0" parent="PgtoRUZVb2iyuVkDTeik-40">
          <mxGeometry x="-0.3289" y="3" relative="1" as="geometry">
            <mxPoint as="offset" />
          </mxGeometry>
        </mxCell>
        <mxCell id="PgtoRUZVb2iyuVkDTeik-42" value="" style="group" vertex="1" connectable="0" parent="1">
          <mxGeometry x="93" y="230" width="130" height="30" as="geometry" />
        </mxCell>
        <mxCell id="PgtoRUZVb2iyuVkDTeik-43" value="" style="rounded=0;whiteSpace=wrap;html=1;" vertex="1" parent="PgtoRUZVb2iyuVkDTeik-42">
          <mxGeometry width="130" height="30" as="geometry" />
        </mxCell>
        <mxCell id="PgtoRUZVb2iyuVkDTeik-44" value="" style="group" vertex="1" connectable="0" parent="PgtoRUZVb2iyuVkDTeik-42">
          <mxGeometry width="130" height="30" as="geometry" />
        </mxCell>
        <mxCell id="PgtoRUZVb2iyuVkDTeik-45" value="Таблица &quot;Блюда&quot;" style="rounded=0;whiteSpace=wrap;html=1;container=0;" vertex="1" parent="PgtoRUZVb2iyuVkDTeik-44">
          <mxGeometry x="30" width="100" height="30" as="geometry" />
        </mxCell>
        <mxCell id="PgtoRUZVb2iyuVkDTeik-46" value="D2" style="rounded=0;whiteSpace=wrap;html=1;container=0;" vertex="1" parent="PgtoRUZVb2iyuVkDTeik-44">
          <mxGeometry width="30" height="30" as="geometry" />
        </mxCell>
        <mxCell id="PgtoRUZVb2iyuVkDTeik-47" value="" style="endArrow=classic;html=1;rounded=0;edgeStyle=elbowEdgeStyle;exitX=0.633;exitY=0.994;exitDx=0;exitDy=0;exitPerimeter=0;" edge="1" parent="1">
          <mxGeometry width="50" height="50" relative="1" as="geometry">
            <mxPoint x="193" y="330" as="sourcePoint" />
            <mxPoint x="193.30000000000018" y="259.82000000000005" as="targetPoint" />
          </mxGeometry>
        </mxCell>
        <mxCell id="PgtoRUZVb2iyuVkDTeik-48" value="Запись" style="edgeLabel;html=1;align=center;verticalAlign=middle;resizable=0;points=[];" vertex="1" connectable="0" parent="PgtoRUZVb2iyuVkDTeik-47">
          <mxGeometry x="-0.0682" y="2" relative="1" as="geometry">
            <mxPoint as="offset" />
          </mxGeometry>
        </mxCell>
        <mxCell id="PgtoRUZVb2iyuVkDTeik-49" value="" style="group" vertex="1" connectable="0" parent="1">
          <mxGeometry x="90" y="600" width="130" height="30" as="geometry" />
        </mxCell>
        <mxCell id="PgtoRUZVb2iyuVkDTeik-50" value="" style="rounded=0;whiteSpace=wrap;html=1;" vertex="1" parent="PgtoRUZVb2iyuVkDTeik-49">
          <mxGeometry width="130" height="30" as="geometry" />
        </mxCell>
        <mxCell id="PgtoRUZVb2iyuVkDTeik-51" value="" style="group" vertex="1" connectable="0" parent="PgtoRUZVb2iyuVkDTeik-49">
          <mxGeometry width="130" height="30" as="geometry" />
        </mxCell>
        <mxCell id="PgtoRUZVb2iyuVkDTeik-52" value="Таблица &quot;Пользователи&quot;" style="rounded=0;whiteSpace=wrap;html=1;container=0;" vertex="1" parent="PgtoRUZVb2iyuVkDTeik-51">
          <mxGeometry x="30" width="100" height="30" as="geometry" />
        </mxCell>
        <mxCell id="PgtoRUZVb2iyuVkDTeik-53" value="D3" style="rounded=0;whiteSpace=wrap;html=1;container=0;" vertex="1" parent="PgtoRUZVb2iyuVkDTeik-51">
          <mxGeometry width="30" height="30" as="geometry" />
        </mxCell>
        <mxCell id="PgtoRUZVb2iyuVkDTeik-54" value="" style="endArrow=classic;html=1;rounded=0;edgeStyle=elbowEdgeStyle;" edge="1" parent="1" source="PgtoRUZVb2iyuVkDTeik-52" target="PgtoRUZVb2iyuVkDTeik-23">
          <mxGeometry width="50" height="50" relative="1" as="geometry">
            <mxPoint x="183" y="710" as="sourcePoint" />
            <mxPoint x="-17" y="720" as="targetPoint" />
            <Array as="points">
              <mxPoint x="123" y="670" />
            </Array>
          </mxGeometry>
        </mxCell>
        <mxCell id="PgtoRUZVb2iyuVkDTeik-55" value="Чтение" style="edgeLabel;html=1;align=center;verticalAlign=middle;resizable=0;points=[];" vertex="1" connectable="0" parent="PgtoRUZVb2iyuVkDTeik-54">
          <mxGeometry x="-0.3289" y="3" relative="1" as="geometry">
            <mxPoint as="offset" />
          </mxGeometry>
        </mxCell>
        <mxCell id="PgtoRUZVb2iyuVkDTeik-56" value="" style="group" vertex="1" connectable="0" parent="1">
          <mxGeometry x="563" y="230" width="130" height="30" as="geometry" />
        </mxCell>
        <mxCell id="PgtoRUZVb2iyuVkDTeik-57" value="" style="rounded=0;whiteSpace=wrap;html=1;" vertex="1" parent="PgtoRUZVb2iyuVkDTeik-56">
          <mxGeometry width="130" height="30" as="geometry" />
        </mxCell>
        <mxCell id="PgtoRUZVb2iyuVkDTeik-58" value="" style="group" vertex="1" connectable="0" parent="PgtoRUZVb2iyuVkDTeik-56">
          <mxGeometry width="130" height="30" as="geometry" />
        </mxCell>
        <mxCell id="PgtoRUZVb2iyuVkDTeik-59" value="Таблица &quot;Бронирования&quot;" style="rounded=0;whiteSpace=wrap;html=1;container=0;" vertex="1" parent="PgtoRUZVb2iyuVkDTeik-58">
          <mxGeometry x="30" width="100" height="30" as="geometry" />
        </mxCell>
        <mxCell id="PgtoRUZVb2iyuVkDTeik-60" value="D1" style="rounded=0;whiteSpace=wrap;html=1;container=0;" vertex="1" parent="PgtoRUZVb2iyuVkDTeik-58">
          <mxGeometry width="30" height="30" as="geometry" />
        </mxCell>
        <mxCell id="PgtoRUZVb2iyuVkDTeik-61" value="" style="endArrow=classic;html=1;rounded=0;edgeStyle=elbowEdgeStyle;" edge="1" parent="1" source="PgtoRUZVb2iyuVkDTeik-59" target="PgtoRUZVb2iyuVkDTeik-11">
          <mxGeometry width="50" height="50" relative="1" as="geometry">
            <mxPoint x="783" y="310" as="sourcePoint" />
            <mxPoint x="703" y="310" as="targetPoint" />
            <Array as="points">
              <mxPoint x="603" y="270" />
            </Array>
          </mxGeometry>
        </mxCell>
        <mxCell id="PgtoRUZVb2iyuVkDTeik-62" value="Чтение" style="edgeLabel;html=1;align=center;verticalAlign=middle;resizable=0;points=[];" vertex="1" connectable="0" parent="PgtoRUZVb2iyuVkDTeik-61">
          <mxGeometry x="-0.3289" y="3" relative="1" as="geometry">
            <mxPoint as="offset" />
          </mxGeometry>
        </mxCell>
        <mxCell id="PgtoRUZVb2iyuVkDTeik-63" value="" style="endArrow=classic;html=1;rounded=0;edgeStyle=elbowEdgeStyle;" edge="1" parent="1" target="PgtoRUZVb2iyuVkDTeik-52">
          <mxGeometry width="50" height="50" relative="1" as="geometry">
            <mxPoint x="183.00470588235294" y="700" as="sourcePoint" />
            <mxPoint x="183.24" y="640" as="targetPoint" />
          </mxGeometry>
        </mxCell>
        <mxCell id="PgtoRUZVb2iyuVkDTeik-64" value="Запись" style="edgeLabel;html=1;align=center;verticalAlign=middle;resizable=0;points=[];" vertex="1" connectable="0" parent="PgtoRUZVb2iyuVkDTeik-63">
          <mxGeometry x="-0.0682" y="2" relative="1" as="geometry">
            <mxPoint as="offset" />
          </mxGeometry>
        </mxCell>
        <mxCell id="PgtoRUZVb2iyuVkDTeik-67" value="" style="endArrow=classic;html=1;rounded=0;entryX=0;entryY=0.25;entryDx=0;entryDy=0;edgeStyle=orthogonalEdgeStyle;" edge="1" parent="1" target="PgtoRUZVb2iyuVkDTeik-2">
          <mxGeometry width="50" height="50" relative="1" as="geometry">
            <mxPoint x="208" y="790" as="sourcePoint" />
            <mxPoint x="233" y="895" as="targetPoint" />
            <Array as="points">
              <mxPoint x="193" y="790" />
              <mxPoint x="193" y="895" />
            </Array>
          </mxGeometry>
        </mxCell>
        <mxCell id="PgtoRUZVb2iyuVkDTeik-68" value="Информация о&lt;div&gt;&amp;nbsp;пользователе&lt;/div&gt;" style="edgeLabel;html=1;align=center;verticalAlign=bottom;resizable=0;points=[];" vertex="1" connectable="0" parent="PgtoRUZVb2iyuVkDTeik-67">
          <mxGeometry x="0.522" y="-4" relative="1" as="geometry">
            <mxPoint x="1" y="-39" as="offset" />
          </mxGeometry>
        </mxCell>
        <mxCell id="PgtoRUZVb2iyuVkDTeik-69" value="" style="group" vertex="1" connectable="0" parent="1">
          <mxGeometry x="313" y="700" width="130" height="90" as="geometry" />
        </mxCell>
        <mxCell id="PgtoRUZVb2iyuVkDTeik-70" value="Подсистема&lt;br style=&quot;border-color: var(--border-color);&quot;&gt;&quot;Отчётность и аналитика&quot;" style="rounded=0;whiteSpace=wrap;html=1;" vertex="1" parent="PgtoRUZVb2iyuVkDTeik-69">
          <mxGeometry width="130" height="90" as="geometry" />
        </mxCell>
        <mxCell id="PgtoRUZVb2iyuVkDTeik-71" value="" style="endArrow=none;html=1;rounded=0;exitX=0;exitY=0.25;exitDx=0;exitDy=0;entryX=1;entryY=0.25;entryDx=0;entryDy=0;" edge="1" parent="PgtoRUZVb2iyuVkDTeik-69" source="PgtoRUZVb2iyuVkDTeik-70" target="PgtoRUZVb2iyuVkDTeik-70">
          <mxGeometry width="50" height="50" relative="1" as="geometry">
            <mxPoint x="187.00000000000003" y="-80" as="sourcePoint" />
            <mxPoint x="242.00000000000003" y="-146.66666666666666" as="targetPoint" />
          </mxGeometry>
        </mxCell>
        <mxCell id="PgtoRUZVb2iyuVkDTeik-72" value="" style="endArrow=none;html=1;rounded=0;exitX=0;exitY=0.75;exitDx=0;exitDy=0;entryX=1;entryY=0.75;entryDx=0;entryDy=0;" edge="1" parent="PgtoRUZVb2iyuVkDTeik-69" source="PgtoRUZVb2iyuVkDTeik-70" target="PgtoRUZVb2iyuVkDTeik-70">
          <mxGeometry width="50" height="50" relative="1" as="geometry">
            <mxPoint x="187.00000000000003" y="-80" as="sourcePoint" />
            <mxPoint x="242.00000000000003" y="-146.66666666666666" as="targetPoint" />
          </mxGeometry>
        </mxCell>
        <mxCell id="PgtoRUZVb2iyuVkDTeik-73" value="4" style="text;html=1;align=center;verticalAlign=middle;whiteSpace=wrap;rounded=0;" vertex="1" parent="PgtoRUZVb2iyuVkDTeik-69">
          <mxGeometry width="130" height="20" as="geometry" />
        </mxCell>
        <mxCell id="PgtoRUZVb2iyuVkDTeik-74" value="&amp;nbsp;" style="text;html=1;align=center;verticalAlign=middle;whiteSpace=wrap;rounded=0;" vertex="1" parent="PgtoRUZVb2iyuVkDTeik-69">
          <mxGeometry y="70" width="130" height="20" as="geometry" />
        </mxCell>
        <mxCell id="PgtoRUZVb2iyuVkDTeik-75" value="" style="group" vertex="1" connectable="0" parent="1">
          <mxGeometry x="563" y="700" width="130" height="90" as="geometry" />
        </mxCell>
        <mxCell id="PgtoRUZVb2iyuVkDTeik-76" value="Подсистема&lt;br style=&quot;border-color: var(--border-color);&quot;&gt;&quot;Управление заказами&quot;" style="rounded=0;whiteSpace=wrap;html=1;" vertex="1" parent="PgtoRUZVb2iyuVkDTeik-75">
          <mxGeometry width="130" height="90" as="geometry" />
        </mxCell>
        <mxCell id="PgtoRUZVb2iyuVkDTeik-77" value="" style="endArrow=none;html=1;rounded=0;exitX=0;exitY=0.25;exitDx=0;exitDy=0;entryX=1;entryY=0.25;entryDx=0;entryDy=0;" edge="1" parent="PgtoRUZVb2iyuVkDTeik-75" source="PgtoRUZVb2iyuVkDTeik-76" target="PgtoRUZVb2iyuVkDTeik-76">
          <mxGeometry width="50" height="50" relative="1" as="geometry">
            <mxPoint x="187.00000000000003" y="-80" as="sourcePoint" />
            <mxPoint x="242.00000000000003" y="-146.66666666666666" as="targetPoint" />
          </mxGeometry>
        </mxCell>
        <mxCell id="PgtoRUZVb2iyuVkDTeik-78" value="" style="endArrow=none;html=1;rounded=0;exitX=0;exitY=0.75;exitDx=0;exitDy=0;entryX=1;entryY=0.75;entryDx=0;entryDy=0;" edge="1" parent="PgtoRUZVb2iyuVkDTeik-75" source="PgtoRUZVb2iyuVkDTeik-76" target="PgtoRUZVb2iyuVkDTeik-76">
          <mxGeometry width="50" height="50" relative="1" as="geometry">
            <mxPoint x="187.00000000000003" y="-80" as="sourcePoint" />
            <mxPoint x="242.00000000000003" y="-146.66666666666666" as="targetPoint" />
          </mxGeometry>
        </mxCell>
        <mxCell id="PgtoRUZVb2iyuVkDTeik-79" value="5" style="text;html=1;align=center;verticalAlign=middle;whiteSpace=wrap;rounded=0;" vertex="1" parent="PgtoRUZVb2iyuVkDTeik-75">
          <mxGeometry width="130" height="20" as="geometry" />
        </mxCell>
        <mxCell id="PgtoRUZVb2iyuVkDTeik-80" value="&amp;nbsp;" style="text;html=1;align=center;verticalAlign=middle;whiteSpace=wrap;rounded=0;" vertex="1" parent="PgtoRUZVb2iyuVkDTeik-75">
          <mxGeometry y="70" width="130" height="20" as="geometry" />
        </mxCell>
        <mxCell id="PgtoRUZVb2iyuVkDTeik-81" value="Официант" style="rounded=0;whiteSpace=wrap;html=1;" vertex="1" parent="1">
          <mxGeometry x="568" y="880" width="120" height="60" as="geometry" />
        </mxCell>
        <mxCell id="PgtoRUZVb2iyuVkDTeik-82" value="" style="endArrow=classic;html=1;rounded=0;entryX=0.75;entryY=1;entryDx=0;entryDy=0;" edge="1" parent="1">
          <mxGeometry width="50" height="50" relative="1" as="geometry">
            <mxPoint x="673.5" y="510" as="sourcePoint" />
            <mxPoint x="673" y="420" as="targetPoint" />
          </mxGeometry>
        </mxCell>
        <mxCell id="PgtoRUZVb2iyuVkDTeik-83" value="Бронирование" style="edgeLabel;html=1;align=center;verticalAlign=middle;resizable=0;points=[];" vertex="1" connectable="0" parent="PgtoRUZVb2iyuVkDTeik-82">
          <mxGeometry x="0.0439" y="-4" relative="1" as="geometry">
            <mxPoint as="offset" />
          </mxGeometry>
        </mxCell>
        <mxCell id="PgtoRUZVb2iyuVkDTeik-85" value="" style="endArrow=classic;html=1;rounded=0;entryX=0.792;entryY=0;entryDx=0;entryDy=0;entryPerimeter=0;" edge="1" parent="1" target="PgtoRUZVb2iyuVkDTeik-81">
          <mxGeometry width="50" height="50" relative="1" as="geometry">
            <mxPoint x="663" y="790" as="sourcePoint" />
            <mxPoint x="663" y="870" as="targetPoint" />
          </mxGeometry>
        </mxCell>
        <mxCell id="PgtoRUZVb2iyuVkDTeik-88" value="Выдача&amp;nbsp;&lt;div&gt;чека&lt;/div&gt;" style="edgeLabel;html=1;align=center;verticalAlign=middle;resizable=0;points=[];" vertex="1" connectable="0" parent="PgtoRUZVb2iyuVkDTeik-85">
          <mxGeometry x="-0.125" y="-4" relative="1" as="geometry">
            <mxPoint as="offset" />
          </mxGeometry>
        </mxCell>
        <mxCell id="PgtoRUZVb2iyuVkDTeik-86" style="rounded=0;orthogonalLoop=1;jettySize=auto;html=1;exitX=0.25;exitY=0;exitDx=0;exitDy=0;" edge="1" parent="1" source="PgtoRUZVb2iyuVkDTeik-81">
          <mxGeometry relative="1" as="geometry">
            <mxPoint x="593" y="870" as="sourcePoint" />
            <mxPoint x="593" y="790" as="targetPoint" />
          </mxGeometry>
        </mxCell>
        <mxCell id="PgtoRUZVb2iyuVkDTeik-87" value="Регистрация&lt;div&gt;заказа&lt;/div&gt;" style="edgeLabel;html=1;align=center;verticalAlign=middle;resizable=0;points=[];" vertex="1" connectable="0" parent="PgtoRUZVb2iyuVkDTeik-86">
          <mxGeometry x="0.024" y="1" relative="1" as="geometry">
            <mxPoint as="offset" />
          </mxGeometry>
        </mxCell>
        <mxCell id="PgtoRUZVb2iyuVkDTeik-89" value="" style="endArrow=classic;html=1;rounded=0;edgeStyle=elbowEdgeStyle;" edge="1" parent="1" source="PgtoRUZVb2iyuVkDTeik-94">
          <mxGeometry width="50" height="50" relative="1" as="geometry">
            <mxPoint x="803" y="700" as="sourcePoint" />
            <mxPoint x="603" y="700" as="targetPoint" />
            <Array as="points">
              <mxPoint x="603" y="670" />
            </Array>
          </mxGeometry>
        </mxCell>
        <mxCell id="PgtoRUZVb2iyuVkDTeik-90" value="Чтение" style="edgeLabel;html=1;align=center;verticalAlign=middle;resizable=0;points=[];" vertex="1" connectable="0" parent="PgtoRUZVb2iyuVkDTeik-89">
          <mxGeometry x="-0.3289" y="3" relative="1" as="geometry">
            <mxPoint as="offset" />
          </mxGeometry>
        </mxCell>
        <mxCell id="PgtoRUZVb2iyuVkDTeik-91" value="" style="group" vertex="1" connectable="0" parent="1">
          <mxGeometry x="553" y="600" width="130" height="30" as="geometry" />
        </mxCell>
        <mxCell id="PgtoRUZVb2iyuVkDTeik-92" value="" style="rounded=0;whiteSpace=wrap;html=1;" vertex="1" parent="PgtoRUZVb2iyuVkDTeik-91">
          <mxGeometry width="130" height="30" as="geometry" />
        </mxCell>
        <mxCell id="PgtoRUZVb2iyuVkDTeik-93" value="" style="group" vertex="1" connectable="0" parent="PgtoRUZVb2iyuVkDTeik-91">
          <mxGeometry width="130" height="30" as="geometry" />
        </mxCell>
        <mxCell id="PgtoRUZVb2iyuVkDTeik-94" value="Таблица &quot;Заказы&quot;" style="rounded=0;whiteSpace=wrap;html=1;container=0;" vertex="1" parent="PgtoRUZVb2iyuVkDTeik-93">
          <mxGeometry x="30" width="100" height="30" as="geometry" />
        </mxCell>
        <mxCell id="PgtoRUZVb2iyuVkDTeik-95" value="D2" style="rounded=0;whiteSpace=wrap;html=1;container=0;" vertex="1" parent="PgtoRUZVb2iyuVkDTeik-93">
          <mxGeometry width="30" height="30" as="geometry" />
        </mxCell>
        <mxCell id="PgtoRUZVb2iyuVkDTeik-96" value="" style="endArrow=classic;html=1;rounded=0;edgeStyle=elbowEdgeStyle;exitX=0.633;exitY=0.994;exitDx=0;exitDy=0;exitPerimeter=0;" edge="1" parent="1">
          <mxGeometry width="50" height="50" relative="1" as="geometry">
            <mxPoint x="653" y="700" as="sourcePoint" />
            <mxPoint x="653.3000000000002" y="629.82" as="targetPoint" />
          </mxGeometry>
        </mxCell>
        <mxCell id="PgtoRUZVb2iyuVkDTeik-97" value="Запись" style="edgeLabel;html=1;align=center;verticalAlign=middle;resizable=0;points=[];" vertex="1" connectable="0" parent="PgtoRUZVb2iyuVkDTeik-96">
          <mxGeometry x="-0.0682" y="2" relative="1" as="geometry">
            <mxPoint as="offset" />
          </mxGeometry>
        </mxCell>
        <mxCell id="PgtoRUZVb2iyuVkDTeik-98" value="" style="endArrow=classic;html=1;rounded=0;edgeStyle=elbowEdgeStyle;" edge="1" parent="1" source="PgtoRUZVb2iyuVkDTeik-103">
          <mxGeometry width="50" height="50" relative="1" as="geometry">
            <mxPoint x="553" y="700" as="sourcePoint" />
            <mxPoint x="353" y="700" as="targetPoint" />
            <Array as="points">
              <mxPoint x="353" y="670" />
            </Array>
          </mxGeometry>
        </mxCell>
        <mxCell id="PgtoRUZVb2iyuVkDTeik-99" value="Чтение" style="edgeLabel;html=1;align=center;verticalAlign=middle;resizable=0;points=[];" vertex="1" connectable="0" parent="PgtoRUZVb2iyuVkDTeik-98">
          <mxGeometry x="-0.3289" y="3" relative="1" as="geometry">
            <mxPoint as="offset" />
          </mxGeometry>
        </mxCell>
        <mxCell id="PgtoRUZVb2iyuVkDTeik-100" value="" style="group" vertex="1" connectable="0" parent="1">
          <mxGeometry x="303" y="600" width="130" height="30" as="geometry" />
        </mxCell>
        <mxCell id="PgtoRUZVb2iyuVkDTeik-101" value="" style="rounded=0;whiteSpace=wrap;html=1;" vertex="1" parent="PgtoRUZVb2iyuVkDTeik-100">
          <mxGeometry width="130" height="30" as="geometry" />
        </mxCell>
        <mxCell id="PgtoRUZVb2iyuVkDTeik-102" value="" style="group" vertex="1" connectable="0" parent="PgtoRUZVb2iyuVkDTeik-100">
          <mxGeometry width="130" height="30" as="geometry" />
        </mxCell>
        <mxCell id="PgtoRUZVb2iyuVkDTeik-103" value="Таблица &quot;Финансы&quot;" style="rounded=0;whiteSpace=wrap;html=1;container=0;" vertex="1" parent="PgtoRUZVb2iyuVkDTeik-102">
          <mxGeometry x="30" width="100" height="30" as="geometry" />
        </mxCell>
        <mxCell id="PgtoRUZVb2iyuVkDTeik-104" value="D2" style="rounded=0;whiteSpace=wrap;html=1;container=0;" vertex="1" parent="PgtoRUZVb2iyuVkDTeik-102">
          <mxGeometry width="30" height="30" as="geometry" />
        </mxCell>
        <mxCell id="PgtoRUZVb2iyuVkDTeik-105" value="" style="endArrow=classic;html=1;rounded=0;edgeStyle=elbowEdgeStyle;exitX=0.633;exitY=0.994;exitDx=0;exitDy=0;exitPerimeter=0;" edge="1" parent="1">
          <mxGeometry width="50" height="50" relative="1" as="geometry">
            <mxPoint x="403" y="700" as="sourcePoint" />
            <mxPoint x="403.3000000000002" y="629.82" as="targetPoint" />
          </mxGeometry>
        </mxCell>
        <mxCell id="PgtoRUZVb2iyuVkDTeik-106" value="Запись" style="edgeLabel;html=1;align=center;verticalAlign=middle;resizable=0;points=[];" vertex="1" connectable="0" parent="PgtoRUZVb2iyuVkDTeik-105">
          <mxGeometry x="-0.0682" y="2" relative="1" as="geometry">
            <mxPoint as="offset" />
          </mxGeometry>
        </mxCell>
        <mxCell id="PgtoRUZVb2iyuVkDTeik-107" value="" style="edgeStyle=orthogonalEdgeStyle;rounded=0;orthogonalLoop=1;jettySize=auto;html=1;" edge="1" parent="1" source="PgtoRUZVb2iyuVkDTeik-74" target="PgtoRUZVb2iyuVkDTeik-2">
          <mxGeometry relative="1" as="geometry">
            <Array as="points">
              <mxPoint x="423" y="930" />
            </Array>
          </mxGeometry>
        </mxCell>
        <mxCell id="PgtoRUZVb2iyuVkDTeik-108" value="Отчеты" style="edgeLabel;html=1;align=center;verticalAlign=middle;resizable=0;points=[];" vertex="1" connectable="0" parent="PgtoRUZVb2iyuVkDTeik-107">
          <mxGeometry x="-0.634" y="1" relative="1" as="geometry">
            <mxPoint x="-1" y="43" as="offset" />
          </mxGeometry>
        </mxCell>
        <mxCell id="PgtoRUZVb2iyuVkDTeik-109" style="edgeStyle=orthogonalEdgeStyle;rounded=0;orthogonalLoop=1;jettySize=auto;html=1;" edge="1" parent="1" source="PgtoRUZVb2iyuVkDTeik-76">
          <mxGeometry relative="1" as="geometry">
            <mxPoint x="443" y="780" as="targetPoint" />
            <Array as="points">
              <mxPoint x="443" y="780" />
            </Array>
          </mxGeometry>
        </mxCell>
        <mxCell id="PgtoRUZVb2iyuVkDTeik-110" value="Информация&lt;div&gt;&amp;nbsp;о заказах&lt;/div&gt;" style="edgeLabel;html=1;align=center;verticalAlign=middle;resizable=0;points=[];" vertex="1" connectable="0" parent="PgtoRUZVb2iyuVkDTeik-109">
          <mxGeometry x="0.142" y="-3" relative="1" as="geometry">
            <mxPoint x="8" y="-2" as="offset" />
          </mxGeometry>
        </mxCell>
        <mxCell id="PgtoRUZVb2iyuVkDTeik-112" style="edgeStyle=orthogonalEdgeStyle;rounded=0;orthogonalLoop=1;jettySize=auto;html=1;exitX=0;exitY=0.5;exitDx=0;exitDy=0;entryX=1;entryY=0.5;entryDx=0;entryDy=0;" edge="1" parent="1" source="PgtoRUZVb2iyuVkDTeik-11" target="PgtoRUZVb2iyuVkDTeik-70">
          <mxGeometry relative="1" as="geometry">
            <mxPoint x="573" y="790" as="sourcePoint" />
            <mxPoint x="453" y="790" as="targetPoint" />
            <Array as="points">
              <mxPoint x="513" y="375" />
              <mxPoint x="513" y="745" />
            </Array>
          </mxGeometry>
        </mxCell>
        <mxCell id="PgtoRUZVb2iyuVkDTeik-113" value="Информация&lt;div&gt;&amp;nbsp;о бронированиях&lt;/div&gt;" style="edgeLabel;html=1;align=center;verticalAlign=middle;resizable=0;points=[];" vertex="1" connectable="0" parent="PgtoRUZVb2iyuVkDTeik-112">
          <mxGeometry x="0.142" y="-3" relative="1" as="geometry">
            <mxPoint x="8" y="-65" as="offset" />
          </mxGeometry>
        </mxCell>
        <mxCell id="PgtoRUZVb2iyuVkDTeik-114" style="edgeStyle=orthogonalEdgeStyle;rounded=0;orthogonalLoop=1;jettySize=auto;html=1;exitX=1;exitY=0.5;exitDx=0;exitDy=0;entryX=0;entryY=0.5;entryDx=0;entryDy=0;" edge="1" parent="1" source="PgtoRUZVb2iyuVkDTeik-17" target="PgtoRUZVb2iyuVkDTeik-70">
          <mxGeometry relative="1" as="geometry">
            <mxPoint x="573" y="385" as="sourcePoint" />
            <mxPoint x="453" y="755" as="targetPoint" />
            <Array as="points">
              <mxPoint x="263" y="375" />
              <mxPoint x="263" y="745" />
            </Array>
          </mxGeometry>
        </mxCell>
        <mxCell id="PgtoRUZVb2iyuVkDTeik-115" value="Информация&lt;div&gt;&amp;nbsp;о меню&lt;/div&gt;" style="edgeLabel;html=1;align=center;verticalAlign=middle;resizable=0;points=[];" vertex="1" connectable="0" parent="PgtoRUZVb2iyuVkDTeik-114">
          <mxGeometry x="0.142" y="-3" relative="1" as="geometry">
            <mxPoint x="8" y="-65" as="offset" />
          </mxGeometry>
        </mxCell>
        <mxCell id="PgtoRUZVb2iyuVkDTeik-116" value="" style="endArrow=classic;html=1;rounded=0;entryX=0;entryY=0.25;entryDx=0;entryDy=0;edgeStyle=elbowEdgeStyle;elbow=vertical;" edge="1" parent="1" source="PgtoRUZVb2iyuVkDTeik-23" target="PgtoRUZVb2iyuVkDTeik-74">
          <mxGeometry width="50" height="50" relative="1" as="geometry">
            <mxPoint x="323" y="800" as="sourcePoint" />
            <mxPoint x="373" y="750" as="targetPoint" />
          </mxGeometry>
        </mxCell>
        <mxCell id="PgtoRUZVb2iyuVkDTeik-117" value="Информация&amp;nbsp;&lt;div&gt;о работниках&lt;/div&gt;" style="edgeLabel;html=1;align=center;verticalAlign=middle;resizable=0;points=[];" vertex="1" connectable="0" parent="PgtoRUZVb2iyuVkDTeik-116">
          <mxGeometry x="-0.1549" y="-2" relative="1" as="geometry">
            <mxPoint x="4" y="-7" as="offset" />
          </mxGeometry>
        </mxCell>
        <mxCell id="PgtoRUZVb2iyuVkDTeik-118" value="" style="group" vertex="1" connectable="0" parent="1">
          <mxGeometry x="263" y="260" width="130" height="30" as="geometry" />
        </mxCell>
        <mxCell id="PgtoRUZVb2iyuVkDTeik-119" value="" style="rounded=0;whiteSpace=wrap;html=1;" vertex="1" parent="PgtoRUZVb2iyuVkDTeik-118">
          <mxGeometry width="130" height="30" as="geometry" />
        </mxCell>
        <mxCell id="PgtoRUZVb2iyuVkDTeik-120" value="" style="group" vertex="1" connectable="0" parent="PgtoRUZVb2iyuVkDTeik-118">
          <mxGeometry width="130" height="30" as="geometry" />
        </mxCell>
        <mxCell id="PgtoRUZVb2iyuVkDTeik-121" value="Таблица &quot;Напитки&quot;" style="rounded=0;whiteSpace=wrap;html=1;container=0;" vertex="1" parent="PgtoRUZVb2iyuVkDTeik-120">
          <mxGeometry x="30" width="100" height="30" as="geometry" />
        </mxCell>
        <mxCell id="PgtoRUZVb2iyuVkDTeik-122" value="D2" style="rounded=0;whiteSpace=wrap;html=1;container=0;" vertex="1" parent="PgtoRUZVb2iyuVkDTeik-120">
          <mxGeometry width="30" height="30" as="geometry" />
        </mxCell>
        <mxCell id="PgtoRUZVb2iyuVkDTeik-123" value="" style="endArrow=classic;html=1;rounded=0;edgeStyle=elbowEdgeStyle;exitX=0.103;exitY=1.021;exitDx=0;exitDy=0;exitPerimeter=0;entryX=1;entryY=0.75;entryDx=0;entryDy=0;" edge="1" parent="1" source="PgtoRUZVb2iyuVkDTeik-121" target="PgtoRUZVb2iyuVkDTeik-20">
          <mxGeometry width="50" height="50" relative="1" as="geometry">
            <mxPoint x="302.74" y="300.18" as="sourcePoint" />
            <mxPoint x="302.74" y="370.18" as="targetPoint" />
            <Array as="points">
              <mxPoint x="302.74" y="340.18" />
            </Array>
          </mxGeometry>
        </mxCell>
        <mxCell id="PgtoRUZVb2iyuVkDTeik-124" value="Чтение" style="edgeLabel;html=1;align=center;verticalAlign=middle;resizable=0;points=[];" vertex="1" connectable="0" parent="PgtoRUZVb2iyuVkDTeik-123">
          <mxGeometry x="-0.3289" y="3" relative="1" as="geometry">
            <mxPoint as="offset" />
          </mxGeometry>
        </mxCell>
        <mxCell id="PgtoRUZVb2iyuVkDTeik-125" value="" style="endArrow=classic;html=1;rounded=0;edgeStyle=elbowEdgeStyle;exitX=1.006;exitY=0.319;exitDx=0;exitDy=0;exitPerimeter=0;entryX=0.595;entryY=1.062;entryDx=0;entryDy=0;entryPerimeter=0;" edge="1" parent="1" source="PgtoRUZVb2iyuVkDTeik-17" target="PgtoRUZVb2iyuVkDTeik-121">
          <mxGeometry width="50" height="50" relative="1" as="geometry">
            <mxPoint x="352.74" y="370.18" as="sourcePoint" />
            <mxPoint x="353.0400000000002" y="300.00000000000006" as="targetPoint" />
            <Array as="points">
              <mxPoint x="353" y="330" />
            </Array>
          </mxGeometry>
        </mxCell>
        <mxCell id="PgtoRUZVb2iyuVkDTeik-126" value="Запись" style="edgeLabel;html=1;align=center;verticalAlign=middle;resizable=0;points=[];" vertex="1" connectable="0" parent="PgtoRUZVb2iyuVkDTeik-125">
          <mxGeometry x="-0.0682" y="2" relative="1" as="geometry">
            <mxPoint as="offset" />
          </mxGeometry>
        </mxCell>
      </root>
    </mxGraphModel>
  </diagram>
</mxfile>
